<svg xmlns="http://www.w3.org/2000/svg" viewBox="0 0 117.6 21.5"><path d="M81.9.4c-.6 0-1 .2-1.3.5s-.6.7-.6 1.2.2 1 .5 1.3.8.5 1.3.5c.6 0 1-.2 1.3-.5s.5-.7.5-1.3c0-.6-.2-1-.5-1.3s-.7-.4-1.2-.4zM32.8 5.9c-2.2 0-3.8.7-5.1 2.1s-1.8 3.4-1.8 5.8.7 4.3 2 5.7 3.2 2.1 5.5 2.1c1 0 1.9-.1 2.7-.2.8-.2 1.6-.4 2.4-.8V18c-.9.4-1.7.7-2.5.8-.8.2-1.6.3-2.5.3-1.4 0-2.4-.4-3.2-1.2-.7-.8-1.1-1.9-1.2-3.4h10.1v-1.7c0-2.1-.6-3.8-1.7-5-1.1-1.3-2.7-1.9-4.7-1.9zm-3.6 6.2c.1-1.2.5-2.2 1.1-2.8s1.4-1 2.5-1c1 0 1.8.3 2.4 1 .6.6.9 1.6.9 2.8h-6.9zM17.1 5.9c-1 0-2 .2-2.8.6-.8.4-1.4 1-1.9 1.8h-.2c-.8-1.6-2.3-2.4-4.6-2.4-1 0-1.8.2-2.6.6-.8.4-1.5.9-1.9 1.6H3l-.5-2H0v15.1h3.2v-7.5c0-1.9.3-3.2.9-4 .6-.8 1.5-1.2 2.7-1.2.9 0 1.6.3 2.1.9s.7 1.4.7 2.6v9.3h3.2v-8c0-1.6.3-2.8.9-3.6.6-.8 1.5-1.2 2.7-1.2.9 0 1.6.3 2.1.9.4.6.7 1.4.7 2.6v9.3h3.2v-9.9c0-1.9-.4-3.3-1.2-4.2-1-.9-2.3-1.3-4.1-1.3zm95 0c-1 0-2 .2-2.8.6s-1.5.9-1.9 1.7h-.2l-.5-2h-2.5v15.1h3.2v-7.5c0-1.9.3-3.2.9-4s1.6-1.2 3-1.2c1 0 1.8.3 2.2.9s.7 1.4.7 2.6v9.3h3.2v-9.9c.2-3.8-1.6-5.6-5.3-5.6zM55 21.3h3.2V6.2H55v15.1zM48 6.7c-.8.5-1.5 1.2-2 2.1h-.2l-.4-2.7h-2.5v15.1h3.2v-7.9c0-1.3.4-2.4 1.2-3.3.8-.8 1.8-1.3 3.1-1.3.5 0 1 .1 1.4.2l.3-3c-.4-.1-1-.1-1.6-.1-.9.1-1.7.3-2.5.9zm32.2 14.6h3.2V6.2h-3.2v15.1zM56.6.4c-.6 0-1 .2-1.3.5s-.5.8-.5 1.3.2 1 .5 1.3.8.5 1.3.5c.6 0 1-.2 1.3-.5s.5-.7.5-1.3c0-.6-.2-1-.5-1.3s-.7-.5-1.3-.5zm15.8 5.1c0 .6.1 1.5.2 2.6h-.2c-1-1.5-2.6-2.2-4.5-2.2s-3.4.7-4.5 2.1-1.6 3.3-1.6 5.8.5 4.4 1.6 5.8 2.5 2.1 4.4 2.1c2 0 3.5-.8 4.5-2.3h.2l.6 2h2.5V0h-3.2v5.5zm.2 8.7c0 1.7-.3 2.9-.9 3.6s-1.6 1.1-2.9 1.1c-1.2 0-2.1-.4-2.7-1.3s-.9-2.2-.9-3.8c0-1.7.3-3 .9-3.9s1.5-1.4 2.6-1.4c1.3 0 2.3.4 2.9 1.2s.9 2.2.9 4.1v.4zM94 5.9c-.9 0-1.8.1-2.8.3s-1.9.5-2.7 1l1 2.3c.7-.3 1.3-.6 2.1-.8s1.5-.3 2.2-.3c.9 0 1.6.2 2.1.7s.7 1.2.7 2.2v.7l-2.6.1c-2.4.1-4.1.5-5.3 1.3s-1.7 2-1.7 3.5.4 2.6 1.3 3.4 2 1.2 3.5 1.2c1.2 0 2.1-.2 2.8-.5s1.5-1 2.2-1.9h.1l.6 2.1h2.3V11.1c0-1.8-.5-3.1-1.5-4S95.9 5.9 94 5.9zm2.6 9.5c0 1.2-.4 2.1-1.1 2.7s-1.6 1-2.8 1c-.8 0-1.4-.2-1.8-.6s-.6-.9-.6-1.6c0-.9.3-1.6 1-2.1s1.8-.7 3.3-.8l1.9-.1v1.5z"/></svg>